<?xml version="1.0" encoding="UTF-8" standalone="no"?><!DOCTYPE svg PUBLIC "-//W3C//DTD SVG 1.1//EN" "http://www.w3.org/Graphics/SVG/1.1/DTD/svg11.dtd"><svg width="100%" height="100%" viewBox="0 0 97 44" version="1.1" xmlns="http://www.w3.org/2000/svg" xmlns:xlink="http://www.w3.org/1999/xlink" xml:space="preserve" xmlns:serif="http://www.serif.com/" style="fill-rule:evenodd;clip-rule:evenodd;stroke-linejoin:round;stroke-miterlimit:1.41421;"><g><g><clipPath id="_clip1"><rect x="0" y="0.893" width="86.443" height="43.107"/></clipPath><g clip-path="url(#_clip1)"><path d="M20.654,35.322l1.831,0l0,-3.877c0.384,0.077 0.723,0.108 1.107,0.108c2.446,0 4.015,-1.553 4.015,-3.968c0,-2.401 -1.461,-3.739 -4.076,-3.739c-0.877,0 -1.692,0.092 -2.877,0.339l0,11.137Zm1.831,-9.845c0.415,-0.093 0.661,-0.123 1.015,-0.123c1.446,0 2.246,0.83 2.246,2.308c0,1.538 -0.862,2.415 -2.369,2.415c-0.308,0 -0.523,-0.031 -0.892,-0.108l0,-4.492Zm6.999,5.999l1.83,0l0,-5.799c0.523,-0.2 1.016,-0.293 1.569,-0.293c0.477,0 0.862,0.062 1.277,0.216l0,-1.538c-0.492,-0.154 -0.907,-0.216 -1.461,-0.216c-1.046,0 -2.2,0.232 -3.215,0.647l0,6.983Zm5.627,-3.661c0,2.384 1.4,3.861 3.646,3.861c2.292,0 3.738,-1.538 3.738,-3.999c0,-2.384 -1.385,-3.862 -3.646,-3.862c-2.292,0 -3.738,1.539 -3.738,4Zm1.846,-0.077c0,-1.584 0.677,-2.477 1.846,-2.477c1.169,0 1.846,0.893 1.846,2.477c0,1.569 -0.677,2.477 -1.846,2.477c-1.169,0 -1.846,-0.908 -1.846,-2.477Zm7.445,-3.753l0,4.892c0,2.061 -0.092,2.845 -0.4,3.539c-0.308,0.661 -0.769,1.075 -1.754,1.583l1.662,0.769c0.968,-0.522 1.446,-0.983 1.814,-1.753c0.386,-0.769 0.509,-1.693 0.509,-3.585l0,-5.445l-1.831,0Zm-0.031,-1.416l1.892,0l0,-1.969l-1.892,0l0,1.969Zm10.644,5.509l0,-0.032c0,-1.277 -0.092,-1.892 -0.353,-2.492c-0.493,-1.093 -1.569,-1.739 -2.907,-1.739c-2.201,0 -3.662,1.616 -3.662,4.016c0,2.399 1.416,3.814 3.816,3.814c1.046,0 1.815,-0.215 2.723,-0.753l0,-1.522c-0.74,0.522 -1.523,0.768 -2.447,0.768c-1.491,0 -2.245,-0.692 -2.322,-2.06l5.152,0Zm-5.029,-1.309c0.169,-0.984 0.814,-1.569 1.738,-1.569c0.922,0 1.445,0.523 1.523,1.569l-3.261,0Zm6.892,4.707l1.83,0l0,-3.923l0.231,0.308c1.292,1.708 2.154,2.754 2.969,3.615l2.353,0l-0.17,-0.154c-0.476,-0.491 -0.983,-1.029 -1.629,-1.783c-0.631,-0.708 -0.923,-1.063 -1.631,-1.954l-0.201,-0.247l0.232,-0.214c1,-0.955 2,-2 2.983,-3.139l-2.106,0c-0.894,1.061 -1.831,2.061 -2.816,2.984l-0.215,0.2l0,-7.23l-1.83,0l0,11.537Zm7.934,-5.953l1.185,0l0,3.507c0,1.139 0.061,1.446 0.354,1.815c0.338,0.462 0.969,0.694 1.875,0.694c0.386,0 0.709,-0.032 1.109,-0.109l0,-1.369c-0.232,0.046 -0.354,0.062 -0.523,0.062c-0.815,0 -1.031,-0.277 -1.031,-1.292l0,-3.308l1.708,0l0,-1.354l-1.708,0l0,-2l-1.707,0l0,2l-1.262,0l0,1.354Z" style="fill:#009ecd;fill-rule:nonzero;"/><path d="M14.524,3.919c0,-1.669 1.351,-3.02 3.018,-3.025l0,6.052c-1.667,-0.005 -3.018,-1.358 -3.018,-3.027Z" style="fill:#d1d3d4;fill-rule:nonzero;"/><path d="M14.524,10.974c0,-1.669 1.351,-3.02 3.018,-3.025l0,6.052c-1.667,-0.005 -3.018,-1.357 -3.018,-3.027Z" style="fill:#6c6e70;fill-rule:nonzero;"/><path d="M14.524,18.03c0,-1.669 1.351,-3.022 3.018,-3.027l0,6.052c-1.667,-0.005 -3.018,-1.356 -3.018,-3.025Z" style="fill:#009ecd;fill-rule:nonzero;"/><path d="M10.289,6.947c-1.672,0 -3.027,-1.356 -3.027,-3.028c0,-1.671 1.355,-3.026 3.027,-3.026c1.671,0 3.026,1.355 3.026,3.026c0,1.672 -1.355,3.028 -3.026,3.028Z" style="fill:#9fa1a4;fill-rule:nonzero;"/><path d="M10.289,14.002c-1.672,0 -3.027,-1.356 -3.027,-3.028c0,-1.671 1.355,-3.025 3.027,-3.025c1.671,0 3.026,1.354 3.026,3.025c0,1.672 -1.355,3.028 -3.026,3.028Z" style="fill:#d0990f;fill-rule:nonzero;"/><path d="M10.289,21.056c-1.672,0 -3.027,-1.355 -3.027,-3.027c0,-1.671 1.355,-3.026 3.027,-3.026c1.671,0 3.026,1.355 3.026,3.026c0,1.672 -1.355,3.027 -3.026,3.027Z" style="fill:#d1d3d4;fill-rule:nonzero;"/><path d="M3.026,14.002c-1.672,0 -3.026,-1.356 -3.026,-3.028c0,-1.671 1.354,-3.025 3.026,-3.025c1.672,0 3.027,1.354 3.027,3.025c0,1.672 -1.355,3.028 -3.027,3.028Z" style="fill:#d1d3d4;fill-rule:nonzero;"/><path d="M3.026,21.056c-1.672,0 -3.026,-1.355 -3.026,-3.027c0,-1.671 1.354,-3.026 3.026,-3.026c1.672,0 3.027,1.355 3.027,3.026c0,1.672 -1.355,3.027 -3.027,3.027Z" style="fill:#006d8f;fill-rule:nonzero;"/><path d="M20.772,43.832l1.832,0l0,-5.799c0.523,-0.201 1.015,-0.293 1.569,-0.293c0.476,0 0.861,0.061 1.276,0.216l0,-1.54c-0.492,-0.154 -0.907,-0.214 -1.461,-0.214c-1.047,0 -2.2,0.23 -3.216,0.645l0,6.985Zm6.446,0l1.831,0l0,-5.831c0.508,-0.215 0.953,-0.323 1.414,-0.323c1.016,0 1.415,0.43 1.415,1.492l0,4.662l1.832,0l0,-4.954c0,-0.985 -0.154,-1.539 -0.569,-1.968c-0.446,-0.462 -1.231,-0.708 -2.215,-0.708c-0.662,0 -1.2,0.091 -1.877,0.338l0,-4.246l-1.831,0l0,11.538Zm15.536,-3.401l0,-0.03c0,-1.277 -0.091,-1.893 -0.352,-2.492c-0.493,-1.093 -1.57,-1.739 -2.908,-1.739c-2.201,0 -3.661,1.616 -3.661,4.015c0,2.401 1.415,3.815 3.814,3.815c1.047,0 1.815,-0.214 2.724,-0.753l0,-1.523c-0.739,0.524 -1.523,0.77 -2.446,0.77c-1.492,0 -2.246,-0.694 -2.323,-2.063l5.152,0Zm-5.029,-1.307c0.169,-0.985 0.815,-1.569 1.737,-1.569c0.924,0 1.447,0.524 1.524,1.569l-3.261,0Zm7.184,4.708l1.831,0l0,-7.493l-1.831,0l0,7.493Zm4.491,0l1.83,0l0,-5.939c0.494,-0.153 0.893,-0.215 1.34,-0.215c1.092,0 1.492,0.401 1.492,1.461l0,4.693l1.83,0l0,-4.816c0,-1.015 -0.17,-1.584 -0.6,-2.046c-0.492,-0.522 -1.308,-0.768 -2.492,-0.768c-1.107,0 -2.17,0.153 -3.4,0.507l0,7.123Zm9.092,0l1.831,0l0,-11.538l-1.831,0l0,11.538Zm4.568,-5.308c0.908,-0.568 1.677,-0.831 2.508,-0.831c0.814,0 1.076,0.277 1.076,1.093l0,0.276l-0.153,0.017c-1.292,0.137 -1.923,0.275 -2.584,0.599c-0.863,0.415 -1.293,1.138 -1.293,2.154c0,1.476 0.784,2.123 2.554,2.123c0.831,0 1.861,-0.093 3.154,-0.278l0,-4.753c0,-0.985 -0.063,-1.43 -0.247,-1.785c-0.323,-0.63 -1.031,-0.953 -2.107,-0.953c-1.015,0 -1.908,0.23 -2.908,0.77l0,1.568Zm3.615,3.907c-0.522,0.077 -0.984,0.123 -1.384,0.123c-0.677,0 -1,-0.261 -1,-0.846c0,-0.799 0.616,-1.138 2.384,-1.277l0,2Zm4.2,1.401l1.831,0l0,-5.939c0.492,-0.153 0.891,-0.215 1.337,-0.215c1.093,0 1.493,0.401 1.493,1.461l0,4.693l1.831,0l0,-4.816c0,-1.015 -0.169,-1.584 -0.6,-2.046c-0.492,-0.522 -1.308,-0.768 -2.492,-0.768c-1.108,0 -2.17,0.153 -3.4,0.507l0,7.123Zm13.783,-7.477c-0.415,-0.107 -0.739,-0.139 -1.2,-0.139c-2.43,0 -3.984,1.539 -3.984,3.969c0,2.462 1.431,3.754 4.153,3.754c0.847,0 1.708,-0.093 2.816,-0.322l0,-11.323l-1.785,0l0,4.061Zm0,5.953c-0.385,0.108 -0.678,0.154 -1.061,0.154c-1.431,0 -2.231,-0.845 -2.231,-2.354c0,-1.538 0.845,-2.43 2.292,-2.43c0.369,0 0.662,0.046 1,0.154l0,4.476Z" style="fill:#9fa1a4;fill-rule:nonzero;"/></g></g><path d="M89.588,34.031l0.164,0c0.313,0 0.462,-0.093 0.462,-0.294c0,-0.201 -0.144,-0.299 -0.429,-0.299c-0.061,0 -0.113,0 -0.197,-0.005l0,0.598Zm-0.434,-0.93l0.046,0c0.22,-0.014 0.402,-0.023 0.561,-0.023c0.304,0 0.496,0.042 0.645,0.145c0.154,0.102 0.243,0.28 0.243,0.486c0,0.29 -0.121,0.468 -0.406,0.589l0.032,0.042l0.122,0.159c0.192,0.243 0.453,0.542 0.584,0.668l-0.593,0c-0.033,-0.047 -0.042,-0.056 -0.099,-0.126c-0.112,-0.135 -0.252,-0.318 -0.346,-0.458l-0.135,-0.192l-0.014,-0.023l-0.066,0c-0.014,0 -0.046,0 -0.093,-0.009c-0.01,0 -0.024,0 -0.047,0.004l0,0.8l-0.434,0l0,-2.062Zm0.794,2.641c0.851,0 1.543,-0.705 1.543,-1.57c0,-0.87 -0.688,-1.576 -1.543,-1.576c-0.851,0 -1.547,0.706 -1.547,1.576c0,0.865 0.696,1.57 1.547,1.57Zm0,-3.421c1.024,0 1.856,0.827 1.856,1.851c0,1.019 -0.832,1.846 -1.861,1.846c-1.023,0 -1.856,-0.827 -1.856,-1.846c0,-1.024 0.833,-1.851 1.861,-1.851Z" style="fill:#9fa1a4;fill-rule:nonzero;"/></g></svg>