<?xml version="1.0" encoding="UTF-8" standalone="no"?> <!-- Created with Vectornator for iOS (http://vectornator.io/) --><!DOCTYPE svg PUBLIC "-//W3C//DTD SVG 1.1//EN" "http://www.w3.org/Graphics/SVG/1.1/DTD/svg11.dtd">
<svg height="100%" style="fill-rule:nonzero;clip-rule:evenodd;stroke-linecap:round;stroke-linejoin:round;" xmlns:xlink="http://www.w3.org/1999/xlink" xmlns="http://www.w3.org/2000/svg" xml:space="preserve" width="100%" xmlns:vectornator="http://vectornator.io" version="1.1" viewBox="0 0 355 296">
<metadata>
<vectornator:setting key="DimensionsVisible" value="1"/>
<vectornator:setting key="PencilOnly" value="0"/>
<vectornator:setting key="SnapToPoints" value="0"/>
<vectornator:setting key="OutlineMode" value="0"/>
<vectornator:setting key="CMYKEnabledKey" value="0"/>
<vectornator:setting key="RulersVisible" value="1"/>
<vectornator:setting key="SnapToEdges" value="0"/>
<vectornator:setting key="GuidesVisible" value="1"/>
<vectornator:setting key="DisplayWhiteBackground" value="0"/>
<vectornator:setting key="doHistoryDisabled" value="0"/>
<vectornator:setting key="SnapToGuides" value="1"/>
<vectornator:setting key="TimeLapseWatermarkDisabled" value="0"/>
<vectornator:setting key="Units" value="Points"/>
<vectornator:setting key="DynamicGuides" value="0"/>
<vectornator:setting key="IsolateActiveLayer" value="0"/>
<vectornator:setting key="SnapToGrid" value="0"/>
</metadata>
<defs/>
<g id="Untitled" vectornator:layerName="Untitled">
<path d="M271.491+223.724C263.066+224.358+255.708+218.041+255.083+209.603C254.441+201.187+260.762+193.841+269.187+193.212C277.616+192.57+284.966+198.878+285.583+207.299C286.229+215.745+279.92+223.078+271.491+223.724ZM354.27+21.1783C353.749+10.9908+342.608+4.20325+334.129+4.65326C324.233+5.17825+317.437+10.9241+314.541+20.1324L288.579+98.3283L256.579+23.1824C252.724+14.3199+245.366+9.30742+235.47+9.82825C226.983+10.2574+216.633+18.1908+217.166+28.3741C217.37+32.6033+218.387+35.6741+219.666+38.7241L270.52+148.603L261.741+172.649C244.437+176.758+232.174+192.937+233.558+211.237C233.787+214.095+234.349+216.845+235.17+219.491C231.387+221.445+227.57+223.316+224.095+225.741C216.362+231.095+213.22+237.799+211.649+246.866C210.733+252.27+210.241+257.445+206.899+262.028C201.812+269.049+190.891+270.062+184.633+263.858C178.479+257.749+179.604+247.787+182.445+240.42C185.154+233.416+200.849+215.12+191.045+208.162C187.304+205.566+182.745+214.966+180.374+217.27C176.933+220.653+172.883+223.291+169.408+226.57C164.141+231.558+160.437+238.874+158.858+245.849C151.974+275.999+188.945+308.128+216.995+290.033C212.774+292.766+208.07+295.799+217.029+290.024C224.216+285.362+220.862+287.533+217.07+289.983C227.77+283.041+234.633+273.591+235.924+260.833C236.487+255.445+234.941+249.237+237.304+244.191C239.066+240.374+243.187+238.599+246.862+236.866C253.945+242.741+263.212+245.987+273.116+245.241C293.42+243.716+308.658+225.999+307.116+205.678C306.558+198.241+303.804+191.512+299.574+186.003L352.845+31.7283C354.099+28.5533+354.495+25.4199+354.27+21.1783ZM0.115879+63.5366C-1.03412+53.2824+6.41172+39.0741+20.8409+34.9991C34.4659+31.1158+47.8701+37.9033+53.6284+46.8616L116.441+145.57L116.978+145.424L118.474+28.4533C118.67+17.7949+126.508+4.95742+140.12+1.08658C154.553-3.01342+168.358+5.15325+172.758+14.4908L231.27+138.628C231.995+140.183+232.466+141.824+232.849+143.17C236.266+155.162+229.708+165.245+218.812+168.349C204.912+172.291+197.704+167.591+192.154+155.333L154.612+69.6741L154.066+69.8241L153.803+193.228C153.749+200.299+151.208+211.028+136.516+215.203C121.795+219.391+113.999+211.595+110.224+205.599L45.1326+100.778L44.5992+100.949L60.0034+216.333C61.7368+229.695+58.0743+237.499+44.1826+241.433C33.2867+244.524+22.4034+239.378+19.0117+227.408C18.6201+226.041+18.1576+224.416+17.9617+222.703L0.115879+63.5366Z" fill-rule="evenodd" fill="#df3414" opacity="1"/>
</g>
</svg>
