<?xml version="1.0" encoding="UTF-8" standalone="no"?>
<!DOCTYPE svg PUBLIC "-//W3C//DTD SVG 1.1//EN" "http://www.w3.org/Graphics/SVG/1.1/DTD/svg11.dtd">
<svg width="100%" height="100%" viewBox="0 0 355 296" version="1.1" xmlns="http://www.w3.org/2000/svg" xmlns:xlink="http://www.w3.org/1999/xlink" xml:space="preserve" xmlns:serif="http://www.serif.com/" style="fill-rule:evenodd;clip-rule:evenodd;stroke-linejoin:round;stroke-miterlimit:2;">
    <g transform="matrix(4.16667,0,0,4.16667,-59.055,-102.951)">
        <path d="M79.331,78.402C77.309,78.554 75.543,77.038 75.393,75.013C75.239,72.993 76.756,71.23 78.778,71.079C80.801,70.925 82.565,72.439 82.713,74.46C82.868,76.487 81.354,78.247 79.331,78.402ZM99.198,29.791C99.073,27.346 96.399,25.717 94.364,25.825C91.989,25.951 90.358,27.33 89.663,29.54L83.432,48.307L75.752,30.272C74.827,28.145 73.061,26.942 70.686,27.067C68.649,27.17 66.165,29.074 66.293,31.518C66.342,32.533 66.586,33.27 66.893,34.002L79.098,60.373L76.991,66.144C72.838,67.13 69.895,71.013 70.227,75.405C70.282,76.091 70.417,76.751 70.614,77.386C69.706,77.855 68.79,78.304 67.956,78.886C66.1,80.171 65.346,81.78 64.969,83.956C64.749,85.253 64.631,86.495 63.829,87.595C62.608,89.28 59.987,89.523 58.485,88.034C57.008,86.568 57.278,84.177 57.96,82.409C58.61,80.728 62.377,76.337 60.024,74.667C59.126,74.044 58.032,76.3 57.463,76.853C56.637,77.665 55.665,78.298 54.831,79.085C53.567,80.282 52.678,82.038 52.299,83.712C50.647,90.948 59.52,98.659 66.252,94.316C65.239,94.972 64.11,95.7 66.26,94.314C67.985,93.195 67.18,93.716 66.27,94.304C68.838,92.638 70.485,90.37 70.795,87.308C70.93,86.015 70.559,84.525 71.126,83.314C71.549,82.398 72.538,81.972 73.42,81.556C75.12,82.966 77.344,83.745 79.721,83.566C84.594,83.2 88.251,78.948 87.881,74.071C87.747,72.286 87.086,70.671 86.071,69.349L98.856,32.323C99.157,31.561 99.252,30.809 99.198,29.791ZM14.201,39.957C13.925,37.496 15.712,34.086 19.175,33.108C22.445,32.176 25.662,33.805 27.044,35.955L42.119,59.645L42.248,59.61L42.607,31.537C42.654,28.979 44.535,25.898 47.802,24.969C51.266,23.985 54.579,25.945 55.635,28.186L69.678,57.979C69.852,58.352 69.965,58.746 70.057,59.069C70.877,61.947 69.303,64.367 66.688,65.112C63.352,66.058 61.622,64.93 60.29,61.988L51.28,41.43L51.149,41.466L51.086,71.083C51.073,72.78 50.463,75.355 46.937,76.357C43.404,77.362 41.533,75.491 40.627,74.052L25.005,48.895L24.877,48.936L28.574,76.628C28.99,79.835 28.111,81.708 24.777,82.652C22.162,83.394 19.55,82.159 18.736,79.286C18.642,78.958 18.531,78.568 18.484,78.157L14.201,39.957Z" style="fill:white;fill-rule:nonzero;"/>
    </g>
</svg>
